<svg xmlns="http://www.w3.org/2000/svg" viewBox="0 0 163 26">
  <g fill="#97DFFC">
    <path d="M42.136 23v-7.136h10.112v-5.376H42.136v-3.52h10.592V1.56H36.12V23zM59.864 5.08V1.56H53.88v3.52h5.984ZM59.896 23V6.552H53.88V23h6.016Zm9.6.32c1.504 0 3.008-.192 3.84-.384v-5.024h-2.624c-1.376 0-1.728-.256-1.728-1.248V11.48h4.352V6.552h-4.352V3.16h-4.768L63.16 6.552h-2.368v4.928h2.176v6.08c0 3.968 2.08 5.76 6.528 5.76ZM80.92 23v-9.376c0-1.76.608-2.24 2.592-2.24 2.112 0 2.528.576 2.528 2.336V23h6.016V12.472c0-3.392-1.6-6.24-5.856-6.24-2.432 0-4.48.96-5.376 2.816h-.288V6.552h-5.6V23h5.984Zm20.832.32c4.896 0 7.968-2.368 7.968-5.696v-.384h-5.952v.064c0 .736-.48 1.024-1.92 1.024-2.208 0-2.752-.416-2.848-2.176h10.656c.096-.544.256-1.536.256-2.432 0-4.384-2.656-7.488-7.968-7.488-5.472 0-8.544 3.264-8.544 8.704 0 5.248 3.008 8.384 8.352 8.384Zm-.128-12.352c1.984 0 2.528.864 2.56 1.92H99c.096-1.344.768-1.92 2.624-1.92ZM118.584 23V11.48h3.2V6.552h-3.456c0-.896.448-1.12 1.344-1.12h2.112V1.56c-1.12-.256-1.888-.384-3.04-.384-4.032 0-5.856 2.464-6.144 5.376h-2.368v4.928h2.336V23h6.016Zm10.24-17.92V1.56h-5.984v3.52h5.984Zm.032 17.92V6.552h-6.016V23h6.016Zm9.696.32c4.896 0 7.968-2.368 7.968-5.696v-.384h-5.952v.064c0 .736-.48 1.024-1.92 1.024-2.208 0-2.752-.416-2.848-2.176h10.656c.096-.544.256-1.536.256-2.432 0-4.384-2.656-7.488-7.968-7.488-5.472 0-8.544 3.264-8.544 8.704 0 5.248 3.008 8.384 8.352 8.384Zm-.128-12.352c1.984 0 2.528.864 2.56 1.92H135.8c.096-1.344.768-1.92 2.624-1.92ZM154.04 23V12.6c0-1.184.512-1.312 1.504-1.312 1.12 0 1.344.352 1.344 1.568v1.632h6.016v-2.976c0-3.232-1.12-5.28-4.288-5.28-2.176 0-3.744 1.216-4.672 2.816h-.288V6.552h-5.6V23h5.984ZM6.617 2.46H2.461a.82.82 0 1 0 0 1.642h4.156a.82.82 0 1 0 0-1.641Zm0 6.563H2.461a.82.82 0 1 0 0 1.641h4.156a.82.82 0 1 0 0-1.64Zm-1.64-3.281H.82a.82.82 0 1 0 0 1.64h4.157a.82.82 0 1 0 0-1.64ZM26.36 9.844h-4.977V6.563c0-1.441-1.763-2.2-2.801-1.16l-6.562 6.562a1.64 1.64 0 0 0 0 2.32l3.762 3.762-4.583 4.582a1.64 1.64 0 1 0 2.32 2.32l5.743-5.742c.64-.641.64-1.68 0-2.32L15.5 13.125l2.602-2.602v.961a1.64 1.64 0 0 0 1.64 1.641h6.617a1.64 1.64 0 0 0 0-3.281ZM15.32 1.506a1.641 1.641 0 0 0-2.07.205L8.738 6.223a1.64 1.64 0 1 0 2.32 2.32l3.561-3.561 1.2.864 1.602-1.603c.268-.268.585-.476.93-.638l-3.03-2.099Z"/>
    <path d="M10.86 15.445a3.252 3.252 0 0 1-.84-1.48l-8.664 8.664a1.64 1.64 0 1 0 2.32 2.32l8.344-8.344-1.16-1.16Z"/>
    <circle cx="22.203" cy="2.461" r="2.461"/>
  </g>
</svg>