<?xml version="1.0" encoding="UTF-8"?>
<svg width="28px" height="26px" viewBox="0 0 28 26" version="1.1" xmlns="http://www.w3.org/2000/svg" xmlns:xlink="http://www.w3.org/1999/xlink">
    <title>running</title>
    <g id="Page-1" stroke="none" stroke-width="1" fill="none" fill-rule="evenodd">
        <g id="Medium" transform="translate(-137.000000, -307.000000)" fill="#97DFFC" fill-rule="nonzero">
            <g id="running" transform="translate(137.000000, 307.000000)">
                <path d="M6.6171875,2.4609375 L2.4609375,2.4609375 C2.00752344,2.4609375 1.640625,2.82783594 1.640625,3.28125 C1.640625,3.73466406 2.00752344,4.1015625 2.4609375,4.1015625 L6.6171875,4.1015625 C7.07060156,4.1015625 7.4375,3.73466406 7.4375,3.28125 C7.4375,2.82783594 7.07060156,2.4609375 6.6171875,2.4609375 Z" id="Path"></path>
                <path d="M6.6171875,9.0234375 L2.4609375,9.0234375 C2.00752344,9.0234375 1.640625,9.39033594 1.640625,9.84375 C1.640625,10.2971641 2.00752344,10.6640625 2.4609375,10.6640625 L6.6171875,10.6640625 C7.07060156,10.6640625 7.4375,10.2971641 7.4375,9.84375 C7.4375,9.39033594 7.07060156,9.0234375 6.6171875,9.0234375 Z" id="Path"></path>
                <path d="M4.9765625,5.7421875 L0.8203125,5.7421875 C0.366898438,5.7421875 0,6.10908594 0,6.5625 C0,7.01591406 0.366898438,7.3828125 0.8203125,7.3828125 L4.9765625,7.3828125 C5.42997656,7.3828125 5.796875,7.01591406 5.796875,6.5625 C5.796875,6.10908594 5.42997656,5.7421875 4.9765625,5.7421875 Z" id="Path"></path>
                <path d="M26.359375,9.84375 L21.3828125,9.84375 L21.3828125,6.5625 C21.3828125,5.12170312 19.6202891,4.36307812 18.5817187,5.40301562 L12.0197109,11.9650234 C11.3788281,12.6059062 11.3788281,13.6440937 12.0197109,14.2849766 L15.7816094,18.046875 L11.1993984,22.6290859 C10.5585156,23.2699687 10.5585156,24.3081562 11.1993984,24.9490391 C11.8402266,25.5898672 12.8784687,25.5899219 13.5193516,24.9490391 L19.2615391,19.2068516 C19.9024219,18.5659687 19.9024219,17.5277812 19.2615391,16.8868984 L15.4996406,13.125 L18.1015625,10.5230781 L18.1015625,11.484375 C18.1015625,12.3903828 18.8361797,13.125 19.7421875,13.125 L26.359375,13.125 C27.2653828,13.125 28,12.3903828 28,11.484375 C28,10.5783672 27.2653828,9.84375 26.359375,9.84375 Z" id="Path"></path>
                <path d="M15.3201563,1.50609375 C14.6680625,1.07269531 13.8029063,1.15844531 13.250125,1.71117187 L8.73840625,6.22289062 C8.09752344,6.86377344 8.09752344,7.90196094 8.73840625,8.54284375 C9.37928906,9.18372656 10.4175313,9.18367187 11.0584141,8.54278906 L14.6192266,4.98197656 L15.8187422,5.84603906 L17.4214141,4.24336719 C17.6894922,3.97528906 18.0056953,3.76720312 18.3514844,3.60472656 L15.3201563,1.50609375 Z" id="Path"></path>
                <path d="M10.8597344,15.4449531 C10.4440547,15.0292734 10.1665703,14.5176719 10.0202812,13.9644531 L1.35564844,22.6290859 C0.714765625,23.2699688 0.714765625,24.3081563 1.35564844,24.9490391 C1.99647656,25.5898672 3.03471875,25.5899219 3.67560156,24.9490391 L12.0197109,16.6049297 L10.8597344,15.4449531 Z" id="Path"></path>
                <circle id="Oval" cx="22.203125" cy="2.4609375" r="2.4609375"></circle>
            </g>
        </g>
    </g>
</svg>